<?xml version="1.0" encoding="UTF-8" standalone="no"?>
<!-- Created with Inkscape (http://www.inkscape.org/) -->

<svg
   width="1133.8583"
   height="1133.8583"
   viewBox="0 0 300 300"
   version="1.1"
   id="svg5"
   inkscape:version="1.2 (dc2aedaf03, 2022-05-15)"
   sodipodi:docname="dibujo.svg"
   inkscape:export-filename="dibujo1.png"
   inkscape:export-xdpi="42.333332"
   inkscape:export-ydpi="42.333332"
   xmlns:inkscape="http://www.inkscape.org/namespaces/inkscape"
   xmlns:sodipodi="http://sodipodi.sourceforge.net/DTD/sodipodi-0.dtd"
   xmlns="http://www.w3.org/2000/svg"
   xmlns:svg="http://www.w3.org/2000/svg">
  <sodipodi:namedview
     id="namedview7"
     pagecolor="#cdcdcd"
     bordercolor="#000000"
     borderopacity="0.25"
     inkscape:showpageshadow="2"
     inkscape:pageopacity="0"
     inkscape:pagecheckerboard="0"
     inkscape:deskcolor="#d1d1d1"
     inkscape:document-units="mm"
     showgrid="false"
     inkscape:zoom="0.31008436"
     inkscape:cx="545.01298"
     inkscape:cy="416.01582"
     inkscape:window-width="1366"
     inkscape:window-height="705"
     inkscape:window-x="-8"
     inkscape:window-y="-8"
     inkscape:window-maximized="1"
     inkscape:current-layer="layer1" />
  <defs
     id="defs2">
    <inkscape:path-effect
       effect="powerstroke"
       id="path-effect1719"
       is_visible="true"
       lpeversion="1"
       offset_points="0,0.6754144"
       not_jump="false"
       sort_points="true"
       interpolator_type="CubicBezierJohan"
       interpolator_beta="0.2"
       start_linecap_type="zerowidth"
       linejoin_type="extrp_arc"
       miter_limit="4"
       scale_width="1"
       end_linecap_type="zerowidth" />
    <inkscape:path-effect
       effect="powerstroke"
       id="path-effect1489"
       is_visible="true"
       lpeversion="1"
       offset_points="0,0.6754144"
       not_jump="false"
       sort_points="true"
       interpolator_type="CubicBezierJohan"
       interpolator_beta="0.2"
       start_linecap_type="zerowidth"
       linejoin_type="extrp_arc"
       miter_limit="4"
       scale_width="1"
       end_linecap_type="zerowidth" />
    <inkscape:path-effect
       effect="powerstroke"
       id="path-effect1416"
       is_visible="true"
       lpeversion="1"
       offset_points="0,0.6754144"
       not_jump="false"
       sort_points="true"
       interpolator_type="CubicBezierJohan"
       interpolator_beta="0.2"
       start_linecap_type="zerowidth"
       linejoin_type="extrp_arc"
       miter_limit="4"
       scale_width="1"
       end_linecap_type="zerowidth" />
    <inkscape:path-effect
       effect="fill_between_many"
       method="bsplinespiro"
       linkedpaths="#path1414,0,1"
       id="path-effect1418" />
    <inkscape:path-effect
       effect="fill_between_many"
       method="bsplinespiro"
       linkedpaths="#path1487,0,1"
       id="path-effect1491" />
    <clipPath
       clipPathUnits="userSpaceOnUse"
       id="clipPath1815">
      <path
         id="path1817"
         style="fill:#ff0000;fill-opacity:1;fill-rule:nonzero;stroke:none;stroke-width:0.264583"
         d="m -90.110778,153.46247 h -72.279312 v 81.02761 h 72.279312 z m -34.293512,49.8569 c 0.0238,1.15895 -1.36156,1.6651 -2.50683,0.21498 -0.37555,-0.47553 -0.74559,-0.95601 -1.09089,-1.45418 -0.35601,-0.52925 -0.67355,-1.08134 -1.04128,-1.60248 -0.24987,-0.38589 -0.49052,-0.78224 -0.80305,-1.1219 -0.21326,-0.2366 -0.17798,-0.19284 -0.3762,-0.42891 -0.1122,-0.13363 -0.21944,-0.28905 -0.34933,-0.40721 -0.0545,-0.0495 -0.11437,-0.093 -0.17157,-0.13953 -0.6079,-0.47008 0.39371,0.30039 -0.4594,-0.33796 -0.43797,-0.32773 -0.83899,-0.7013 -1.15807,-1.14826 -0.69105,-0.92866 -1.33524,-1.88957 -1.92753,-2.88457 -0.10968,-0.16987 -0.21481,-0.34278 -0.32918,-0.50953 -0.40683,-0.59318 -0.86234,-1.15325 -1.29346,-1.72858 -0.36082,-0.45172 -0.72855,-0.89828 -1.08107,-1.35651 -0.28527,-0.38775 -0.59969,-0.75386 -0.88471,-1.14205 -0.36275,-0.47591 -0.7555,-0.92665 -1.12344,-1.39836 -0.46664,-0.60275 -0.99347,-1.15238 -1.53066,-1.6924 -0.25523,-0.2662 -0.49686,-0.50924 -0.73432,-0.79272 -0.29883,-0.35675 -0.5443,-0.74872 -0.80202,-1.13481 -0.11222,-0.16264 -0.22053,-0.32829 -0.33641,-0.48835 -0.28117,-0.38835 -0.61833,-0.74512 -0.73536,-1.22628 -0.57612,-2.36869 3.75482,-2.54969 2.47169,-0.60254 0.0213,0.0275 0.0413,0.0557 0.0625,0.0832 0.20543,0.26647 0.39498,0.5438 0.58601,0.82063 0.23414,0.33569 0.43539,0.69331 0.70486,1.00304 0.17359,0.19952 0.3959,0.42461 0.57775,0.61339 0.60089,0.59892 1.17769,1.21954 1.70015,1.88826 0.3748,0.47587 0.76922,0.93514 1.1374,1.41645 0.29462,0.39368 0.60773,0.77313 0.90279,1.16634 0.33691,0.43474 0.68611,0.85958 1.02939,1.28933 0.45367,0.60344 0.93134,1.19182 1.35909,1.81436 0.13995,0.20369 0.27047,0.41376 0.40566,0.62063 0.56575,0.94922 1.17685,1.86911 1.8371,2.75487 0.28913,0.42811 0.73291,0.69029 1.13533,0.99684 0.48359,0.35181 0.83019,0.84394 1.22835,1.28157 0.40497,0.43669 0.72397,0.94071 1.04645,1.43868 0.36026,0.50716 0.66665,1.04876 1.01544,1.56373 0.31112,0.44569 0.64304,0.87667 0.9803,1.30276 0.38228,0.48296 0.54654,0.94177 0.55449,1.32808 z m -10.56473,-28.88712 c 1.7e-4,0.0603 -7.9e-4,0.1207 -0.009,0.18035 -0.0696,0.50512 -0.37017,0.91569 -0.72348,1.26349 -0.14733,0.14181 -0.27079,0.26397 -0.4289,0.39894 -0.38907,0.33211 -0.81875,0.613 -1.23766,0.90485 -0.21586,0.14828 -0.4655,0.31715 -0.67747,0.47233 -0.39328,0.28794 -0.76357,0.60688 -1.20251,0.82682 -0.51611,0.28702 -1.04007,0.55885 -1.56528,0.82837 h -5.3e-4 c -2.19203,1.12483 -3.30706,-1.10614 -1.11259,-2.22622 0.49308,-0.25168 0.98383,-0.5072 1.46761,-0.7767 0.0386,-0.023 0.41149,-0.24365 0.45269,-0.27285 0.0422,-0.0299 0.0754,-0.0707 0.11575,-0.10283 0.1116,-0.0886 0.22523,-0.1745 0.34003,-0.2589 0.27354,-0.20097 0.49362,-0.34916 0.77256,-0.54105 0.36431,-0.25766 0.74535,-0.49625 1.08314,-0.78962 0.0326,-0.0283 0.23951,-0.22893 0.2651,-0.25373 0.0236,-0.0177 0.0437,-0.0378 0.0605,-0.0574 0.0804,-0.17021 0.0769,-0.0897 0,0 -0.002,0.004 -0.003,0.007 -0.006,0.0114 -0.0725,0.15782 -0.061,0.18887 -0.0786,0.36225 0.0243,0.1696 0.0141,0.20422 0.0677,0.33434 0.0101,0.0244 0.0332,0.0445 0.0362,0.0708 1.4e-4,10e-4 -5.3e-4,10e-4 -5.3e-4,0.002 l 0.003,0.003 c 1.57723,1.89277 -0.0926,-3.55619 1.67535,-1.8402 0.36573,0.35497 0.63938,0.75707 0.70228,1.27951 -0.002,0.0602 2.6e-4,0.12054 5.3e-4,0.18087 z m -2.39521,0.35966 c -0.006,-0.0102 -0.0135,-0.0217 -0.0186,-0.0274 -0.002,-0.003 0.002,0.007 0.004,0.0103 0.005,0.006 0.01,0.0115 0.0145,0.017 z m -0.61236,-2.1239 c 0.0283,0.80767 -0.88547,1.50938 -2.2717,0.93276 -0.16078,-0.0669 -0.0853,-0.0335 -0.22686,-0.0992 -0.32882,-0.16212 -0.64531,-0.34247 -0.89607,-0.61701 -0.24093,-0.26208 -0.45336,-0.54784 -0.69866,-0.80615 -0.10657,-0.10782 -0.21281,-0.22468 -0.33125,-0.31988 -0.15617,-0.12556 -0.32872,-0.23164 -0.47129,-0.37414 -0.24162,-0.22265 -0.46514,-0.46116 -0.67231,-0.71623 -0.16362,-0.18708 -0.31653,-0.38297 -0.48007,-0.57 -0.17904,-0.19467 -0.38082,-0.37083 -0.59738,-0.52244 -0.23633,-0.15401 -0.47681,-0.30148 -0.71313,-0.45527 -2.06507,-1.34379 -0.7413,-3.46109 1.31929,-2.11047 0.24883,0.1631 0.50296,0.31819 0.75241,0.48059 0.38319,0.25402 0.72571,0.56357 1.04387,0.894 0.19323,0.1992 0.35103,0.42902 0.53795,0.63356 0.15454,0.1816 0.30386,0.36662 0.48317,0.52451 0.0335,0.029 0.0658,0.059 0.10026,0.0868 0.0189,0.0152 0.0396,0.0279 0.0594,0.0419 0.0367,0.0268 0.0747,0.052 0.11007,0.0806 0.21964,0.17727 0.42089,0.36957 0.62064,0.56844 0.28106,0.26217 0.48846,0.59159 0.75551,0.86558 0.0565,0.0388 0.10065,0.0459 0.16795,0.0785 0.056,0.0257 0.0327,0.0173 0.0687,0.0289 0.91588,0.29563 1.32132,0.85686 1.33945,1.37459 z" />
    </clipPath>
  </defs>
  <g
     inkscape:label="Capa 1"
     inkscape:groupmode="layer"
     id="layer1">
    <path
       id="path1420"
       style="display:inline;fill:#dcdcdc;fill-opacity:1"
       class="UnoptimicedTransforms"
       inkscape:label="path1420"
       transform="matrix(2.1045978,0,0,2.2254112,-210.77342,-168.13708)"
       d="m 150.8846,102.54655 -48.26786,19.60913 -0.54983,0.22325 0.15037,0.5736 9.65368,36.80448 0.13126,0.49971 0.51676,0.004 38.31239,0.30179 0.67748,0.005 0.004,-0.67696 0.30127,-56.71489 z m -5.77951,78.75943 h 92.91555 v 10.25691 h -92.91555 z m -32.65616,-14.70661 h 125.49633 v 10.25691 H 112.44893 Z m 44.33195,-77.393613 v 72.279313 h 81.02761 A 81.027641,72.279099 0 0 0 156.78088,89.205757 Z m 52.54253,29.705163 h 5.1e-4 a 3.4315398,3.3184118 0 0 1 3.4308,3.31815 3.4315398,3.3184118 0 0 1 -3.43131,3.31866 3.4315398,3.3184118 0 0 1 -0.78859,-0.0894 c -7.26959,5.65411 -14.50398,11.28029 -21.6519,16.8398 a 3.4315398,3.3184118 0 0 1 0.004,0.14314 3.4315398,3.3184118 0 0 1 -3.43183,3.31866 3.4315398,3.3184118 0 0 1 -3.43132,-3.31866 3.4315398,3.3184118 0 0 1 0.26717,-1.27899 c -0.53346,-0.86688 -1.0795,-1.75483 -1.59887,-2.59881 a 3.4315398,3.3184118 0 0 1 -0.85576,0.10697 3.4315398,3.3184118 0 0 1 -0.30024,-0.014 c -1.393,1.87752 -2.67776,3.60875 -3.95015,5.3237 a 3.4315398,3.3184118 0 0 1 0.25322,1.25161 3.4315398,3.3184118 0 0 1 -3.43132,3.31866 3.4315398,3.3184118 0 0 1 -3.43131,-3.31866 3.4315398,3.3184118 0 0 1 3.43131,-3.31815 3.4315398,3.3184118 0 0 1 0.55914,0.0444 c 1.18939,-1.38762 2.59748,-3.03038 4.04627,-4.72064 a 3.4315398,3.3184118 0 0 1 -0.60824,-1.88515 3.4315398,3.3184118 0 0 1 3.43132,-3.31866 3.4315398,3.3184118 0 0 1 3.43183,3.31866 3.4315398,3.3184118 0 0 1 -0.33951,1.43918 c 0.49364,0.82271 0.97221,1.62052 1.4919,2.48667 a 3.4315398,3.3184118 0 0 1 1.03456,-0.15502 3.4315398,3.3184118 0 0 1 1.38699,0.28318 c 6.78194,-5.44131 13.85576,-11.11694 21.06332,-16.89974 a 3.4315398,3.3184118 0 0 1 -0.0134,-0.2775 3.4315398,3.3184118 0 0 1 3.43132,-3.31815 z m -2.9745,4.97179 c -6.97117,5.59317 -13.78038,11.05595 -20.35224,16.32872 a 3.4315398,3.3184118 0 0 1 0.49351,0.68161 c 6.93803,-5.39624 13.91139,-10.81996 20.6778,-16.08274 a 3.4315398,3.3184118 0 0 1 -0.81907,-0.92759 z m -26.32604,14.02499 a 3.4315398,3.3184118 0 0 1 -0.10077,0.0775 c 0.4028,0.65455 0.81852,1.32984 1.2299,1.99833 a 3.4315398,3.3184118 0 0 1 0.0775,-0.0646 c -0.41312,-0.68852 -0.80984,-1.34993 -1.20664,-2.01124 z m -4.01784,0.24804 c -1.34066,1.56411 -2.57605,3.00521 -3.69693,4.31292 a 3.4315398,3.3184118 0 0 1 0.45681,0.3514 l 3.39411,-4.5744 a 3.4315398,3.3184118 0 0 1 -0.15399,-0.0899 z" />
  </g>
</svg>
